<?xml version="1.0" standalone="no"?>
<!DOCTYPE svg PUBLIC "-//W3C//DTD SVG 20010904//EN"
 "http://www.w3.org/TR/2001/REC-SVG-20010904/DTD/svg10.dtd">
<svg version="1.0" xmlns="http://www.w3.org/2000/svg"
 width="1280.000000pt" height="455.000000pt" viewBox="0 0 1280.000000 455.000000"
 preserveAspectRatio="xMidYMid meet">

<g transform="translate(0.000000,455.000000) scale(0.100000,-0.100000)"
fill="#000000" stroke="none">
<path d="M2967 4418 c-3 -13 -22 -133 -42 -268 -20 -135 -52 -348 -71 -475
-19 -126 -46 -306 -59 -400 -14 -93 -32 -210 -40 -260 -8 -49 -26 -166 -39
-260 -14 -93 -41 -273 -61 -400 -19 -126 -39 -261 -45 -300 -5 -38 -19 -131
-30 -205 -11 -74 -29 -193 -40 -265 -42 -279 -70 -470 -70 -473 0 -1 174 -1
387 0 l387 3 12 75 c7 41 21 140 33 220 38 256 102 680 128 855 10 61 22 113
28 118 5 4 125 6 265 3 193 -3 269 -8 313 -20 158 -44 235 -130 257 -289 10
-72 1 -169 -39 -409 -6 -32 -13 -117 -17 -190 -8 -159 6 -263 42 -325 l25 -43
409 0 c406 0 410 0 410 20 0 12 -11 33 -25 48 -39 42 -65 125 -76 243 -11 114
-5 190 27 389 24 144 24 354 1 440 -30 111 -74 189 -151 266 -58 59 -90 81
-179 124 l-109 53 72 33 c327 152 513 378 571 694 16 86 16 270 0 345 -30 146
-103 277 -210 378 -148 140 -309 218 -555 270 -97 20 -132 21 -802 25 l-702 3
-5 -23z m1271 -601 c93 -32 149 -79 193 -159 34 -62 34 -65 33 -183 0 -101 -4
-130 -24 -180 -61 -159 -188 -263 -363 -299 -57 -12 -137 -16 -317 -16 -225 0
-241 1 -236 18 3 9 21 123 41 252 19 129 46 312 60 405 14 94 28 176 30 184 4
11 49 13 258 9 239 -5 256 -6 325 -31z"/>
<path d="M5087 4433 c-3 -5 -11 -49 -18 -100 l-13 -92 48 -48 c107 -106 193
-260 221 -393 19 -90 19 -278 1 -390 -20 -119 -65 -247 -122 -342 -62 -104
-203 -248 -306 -314 -43 -27 -78 -53 -77 -59 0 -5 23 -26 50 -45 102 -70 189
-194 236 -335 51 -148 53 -269 11 -536 -31 -201 -31 -413 0 -483 12 -26 36
-64 53 -83 24 -28 30 -43 27 -69 l-4 -34 441 0 c513 0 626 10 850 75 157 46
223 76 353 162 273 181 444 511 445 863 0 199 -47 332 -158 445 -62 64 -189
137 -261 151 -19 3 -36 9 -38 13 -3 4 30 24 72 44 299 144 473 444 472 814 -1
407 -297 664 -859 743 -123 18 -197 20 -778 20 -353 0 -644 -3 -646 -7z m1128
-593 c175 -16 290 -73 337 -168 20 -41 23 -62 23 -157 -1 -91 -5 -120 -24
-168 -54 -137 -166 -224 -351 -274 -55 -15 -504 -31 -534 -20 -10 4 -12 16 -6
54 5 26 18 113 30 193 21 144 50 339 72 478 l11 72 171 0 c94 -1 216 -5 271
-10z m11 -1315 c139 -25 216 -73 258 -164 29 -63 31 -269 3 -348 -43 -122
-132 -218 -244 -262 -110 -43 -185 -51 -498 -51 l-296 0 6 33 c5 33 25 169 50
342 8 55 26 176 40 269 14 93 25 175 25 183 0 20 535 19 656 -2z"/>
<path d="M7096 4418 c-3 -13 -6 -39 -6 -59 0 -32 6 -40 53 -72 69 -48 186
-169 220 -228 75 -129 107 -310 89 -497 -25 -247 -112 -442 -267 -597 -44 -44
-96 -92 -115 -106 l-34 -25 60 -41 c117 -79 198 -191 246 -339 20 -61 23 -89
23 -244 0 -150 -4 -187 -23 -260 -104 -386 -294 -618 -637 -776 -58 -26 -105
-52 -105 -56 0 -4 497 -8 1104 -8 l1104 0 6 27 c3 16 21 134 41 263 19 129 38
250 41 268 l5 32 -716 0 -715 0 0 24 c0 13 18 142 40 287 22 145 49 325 60
399 11 74 36 239 56 365 19 127 41 275 49 330 8 55 23 159 34 230 11 72 47
312 80 535 33 223 65 432 71 465 5 33 10 70 10 83 l0 22 -384 0 -384 0 -6 -22z"/>
<path d="M970 4230 l0 -80 934 0 934 0 7 58 c3 31 9 67 12 80 l5 22 -946 0
-946 0 0 -80z"/>
<path d="M1530 3810 l0 -80 619 0 c582 0 620 1 625 18 2 9 7 37 11 62 4 25 9
53 11 63 5 16 -30 17 -630 17 l-636 0 0 -80z"/>
<path d="M9470 3624 c-14 -2 -65 -11 -115 -20 -674 -114 -1118 -718 -1120
-1524 0 -101 5 -191 14 -232 l13 -68 343 0 c398 0 380 5 376 -97 -1 -47 -37
-295 -76 -539 l-7 -41 48 -12 c153 -35 397 -42 564 -16 558 84 956 464 1105
1055 122 482 65 877 -167 1166 -124 154 -304 259 -528 309 -73 16 -392 29
-450 19z m265 -626 c82 -43 123 -103 149 -220 26 -114 29 -196 12 -343 -45
-377 -160 -630 -331 -731 -103 -60 -272 -70 -377 -22 -132 61 -183 175 -180
408 1 161 34 374 78 507 75 232 178 362 327 415 41 15 74 18 162 15 95 -3 117
-6 160 -29z"/>
<path d="M11050 3624 c-116 -20 -153 -28 -205 -46 -86 -29 -199 -90 -278 -149
l-68 -51 25 -32 c87 -108 160 -254 196 -395 90 -355 26 -852 -157 -1215 -52
-104 -160 -254 -251 -347 l-93 -97 51 -48 c143 -136 321 -193 569 -181 202 9
348 71 504 216 28 26 47 38 47 29 0 -51 -33 -236 -51 -285 -56 -151 -161 -237
-339 -280 -85 -20 -312 -19 -445 2 -90 15 -262 67 -357 109 -29 12 -38 13 -38
4 0 -7 -28 -83 -61 -168 -90 -230 -150 -392 -147 -395 20 -20 230 -99 339
-128 189 -51 263 -61 459 -60 729 1 1210 308 1361 868 15 56 90 513 115 700 2
22 11 81 19 130 13 79 37 237 115 760 10 72 37 252 60 400 22 149 49 331 60
405 11 74 23 152 26 173 l6 37 -343 -2 -343 -3 -37 -120 c-20 -66 -43 -135
-51 -154 l-14 -34 -39 68 c-47 81 -141 181 -206 218 -89 52 -155 69 -284 72
-66 2 -131 2 -145 -1z m431 -629 c58 -29 126 -96 136 -133 5 -22 -2 -79 -47
-372 -26 -168 -55 -364 -81 -540 -22 -150 -28 -162 -120 -220 -84 -55 -152
-73 -274 -74 -95 -1 -117 2 -163 23 -64 29 -103 72 -133 148 -19 49 -24 81
-27 203 -3 122 0 171 22 305 70 421 229 670 446 694 85 10 181 -4 241 -34z"/>
<path d="M1080 3472 c-6 -2 -10 -37 -10 -78 l0 -74 819 0 c772 0 820 1 825 18
3 9 8 43 12 74 l6 58 -821 2 c-452 2 -826 2 -831 0z"/>
<path d="M730 2980 l0 -80 958 0 958 0 12 70 c7 39 12 75 12 80 0 7 -342 10
-970 10 l-970 0 0 -80z"/>
<path d="M1472 2564 l3 -75 555 0 555 1 6 23 c3 12 9 46 13 75 l7 52 -571 0
-571 0 3 -76z"/>
<path d="M1130 2150 l0 -80 699 0 698 0 7 65 c4 36 9 72 12 80 5 13 -74 15
-705 15 l-711 0 0 -80z"/>
<path d="M300 1730 l0 -80 1079 0 1078 0 12 57 c6 31 11 67 11 80 l0 23 -1090
0 -1090 0 0 -80z"/>
<path d="M580 1310 l0 -80 909 0 909 0 6 40 c3 22 9 58 12 80 l6 40 -921 0
-921 0 0 -80z"/>
<path d="M2126 886 c-22 -8 -53 -28 -70 -45 -25 -25 -30 -40 -34 -89 -4 -54
-2 -62 24 -91 16 -18 63 -49 104 -69 88 -44 108 -72 90 -127 -15 -44 -44 -65
-93 -65 -47 0 -97 44 -97 85 0 24 -3 26 -32 23 -32 -3 -33 -4 -32 -47 1 -36 7
-49 32 -72 85 -76 237 -54 284 41 10 19 18 54 18 77 0 57 -36 97 -127 140 -86
41 -108 67 -99 118 8 43 48 75 92 75 40 0 71 -30 80 -77 6 -31 9 -34 38 -31
25 2 32 8 34 30 4 38 -23 91 -57 111 -42 24 -109 30 -155 13z"/>
<path d="M2990 891 c-52 -16 -91 -43 -114 -79 -32 -50 -43 -88 -60 -209 -21
-157 -5 -206 83 -245 95 -43 223 12 266 115 20 49 49 259 41 303 -17 88 -121
144 -216 115z m107 -66 c37 -26 45 -78 28 -189 -28 -183 -53 -225 -144 -234
-43 -4 -53 -1 -75 21 -21 22 -26 35 -26 79 0 65 26 220 45 265 26 62 121 94
172 58z"/>
<path d="M4547 886 c-72 -27 -107 -76 -107 -150 0 -61 33 -97 131 -145 87 -43
107 -71 89 -126 -15 -44 -44 -65 -92 -65 -49 0 -90 35 -92 78 -1 30 -3 32 -38
32 -36 0 -38 -1 -38 -34 0 -110 166 -173 272 -102 79 52 92 176 25 226 -11 8
-52 31 -91 51 -78 39 -102 70 -91 119 14 64 100 92 143 47 12 -13 25 -37 28
-55 6 -28 10 -32 40 -32 32 0 34 2 34 36 0 97 -110 158 -213 120z"/>
<path d="M6506 885 c-49 -17 -94 -59 -117 -110 -19 -44 -49 -210 -49 -278 0
-94 78 -164 172 -153 73 8 138 49 158 101 24 63 24 65 -14 65 -33 0 -38 -4
-52 -40 -37 -93 -168 -94 -189 -2 -7 32 19 224 38 274 25 69 61 98 121 98 47
0 76 -29 76 -75 0 -33 2 -35 34 -35 42 0 53 23 36 74 -26 79 -120 115 -214 81z"/>
<path d="M6931 886 c-91 -30 -133 -98 -157 -253 -19 -127 -18 -166 5 -211 39
-76 148 -101 241 -54 88 44 126 135 136 331 5 85 3 100 -15 128 -38 60 -128
85 -210 59z m130 -75 c36 -36 37 -72 10 -223 -21 -117 -29 -135 -75 -166 -64
-44 -149 -17 -161 51 -6 34 18 219 36 274 28 86 132 121 190 64z"/>
<path d="M9610 893 c-86 -31 -121 -74 -124 -151 -2 -67 21 -96 107 -138 95
-46 117 -68 117 -115 0 -75 -95 -115 -161 -68 -22 16 -29 28 -29 55 0 32 -2
34 -35 34 -34 0 -35 -1 -35 -41 0 -22 5 -49 10 -60 18 -33 89 -63 150 -63 106
0 173 59 174 155 1 64 -24 96 -112 139 -38 19 -80 44 -91 54 -51 46 -5 146 66
146 44 0 83 -38 83 -80 0 -28 3 -30 35 -30 35 0 35 1 35 43 0 23 -7 53 -16 66
-31 43 -124 72 -174 54z"/>
<path d="M318 865 c-3 -13 -3 -27 0 -30 3 -3 34 -5 70 -5 l65 0 -6 -42 c-9
-71 -57 -391 -62 -415 -5 -21 -2 -23 33 -23 l39 0 12 88 c7 48 21 142 32 210
10 67 19 133 19 147 0 32 14 39 78 36 57 -2 82 10 82 40 0 18 -11 19 -179 19
l-179 0 -4 -25z"/>
<path d="M727 768 c-10 -68 -26 -181 -37 -253 -26 -173 -27 -165 14 -165 34 0
34 0 44 63 6 34 14 86 17 115 l7 52 63 0 c91 0 99 -11 92 -117 -3 -46 -4 -90
0 -98 3 -10 19 -15 42 -15 l36 0 -1 98 c0 122 0 118 -26 144 l-21 21 27 20
c37 27 57 70 58 128 2 96 -47 128 -202 128 l-96 1 -17 -122z m225 45 c21 -19
24 -82 7 -116 -24 -43 -51 -56 -118 -57 -49 0 -62 3 -58 14 3 7 8 35 12 62 3
27 8 64 11 82 l5 32 61 0 c43 0 67 -5 80 -17z"/>
<path d="M1272 848 c-86 -189 -222 -492 -222 -495 0 -1 16 -3 36 -3 34 0 37 2
67 70 l32 70 82 0 82 0 7 -70 7 -70 38 0 c22 0 39 3 39 8 0 4 -9 68 -20 142
-12 74 -27 185 -36 245 -20 147 -19 145 -59 145 -30 0 -36 -5 -53 -42z m52
-197 c4 -40 10 -79 13 -87 4 -11 -8 -14 -60 -14 l-66 0 47 106 c51 118 54 118
66 -5z"/>
<path d="M1585 868 c-7 -30 -61 -386 -70 -460 l-7 -58 35 0 c35 0 36 1 42 48
4 26 13 83 20 127 8 44 17 108 21 143 3 34 10 64 13 66 4 3 33 -66 65 -152 33
-86 66 -174 74 -194 13 -35 18 -38 52 -38 l37 0 17 123 c10 67 27 176 37 242
27 170 27 175 -14 175 l-33 0 -22 -142 c-12 -79 -25 -167 -28 -196 -4 -29 -10
-50 -15 -45 -4 4 -33 76 -64 158 -86 232 -83 225 -121 225 -27 0 -35 -5 -39
-22z"/>
<path d="M2455 878 c-5 -16 -64 -402 -72 -475 l-6 -53 35 0 35 0 13 88 c20
136 16 131 104 131 85 0 132 17 163 59 66 90 50 213 -32 248 -45 18 -234 20
-240 2z m224 -74 c26 -33 27 -66 1 -119 -25 -51 -53 -65 -132 -65 l-61 0 7 43
c4 23 11 70 17 105 l11 62 68 0 c62 0 71 -2 89 -26z"/>
<path d="M3325 878 c-6 -20 -75 -485 -75 -507 0 -17 6 -21 34 -21 l34 0 18
115 18 115 60 0 c34 0 66 -4 73 -8 24 -15 31 -56 21 -124 -13 -87 -8 -98 39
-98 l38 0 0 111 c0 106 -1 112 -25 131 l-25 20 26 22 c44 36 61 72 61 127 0
61 -23 99 -73 116 -47 17 -218 17 -224 1z m207 -65 c23 -21 24 -85 1 -123 -22
-37 -52 -50 -119 -50 -51 0 -54 1 -50 23 3 12 10 55 16 95 l12 72 61 0 c42 0
66 -5 79 -17z"/>
<path d="M3677 868 c-9 -33 -1 -38 69 -38 35 0 64 -4 64 -8 0 -17 -49 -356
-65 -444 -4 -26 -2 -28 33 -28 l37 0 34 228 c18 125 37 233 41 241 6 11 24 14
69 12 58 -2 61 -1 71 24 5 14 10 28 10 31 0 2 -80 4 -179 4 -175 0 -179 0
-184 -22z"/>
<path d="M4106 873 c-2 -10 -11 -63 -20 -118 -8 -55 -25 -159 -36 -231 -30
-195 -45 -174 125 -174 l145 0 0 30 0 30 -105 0 c-120 0 -111 -11 -91 110 l12
75 91 3 c84 3 91 4 97 25 3 12 6 25 6 30 0 4 -43 7 -95 7 -71 0 -93 3 -90 13
2 6 9 44 15 84 l12 72 106 3 107 3 3 28 3 27 -140 0 c-124 0 -140 -2 -145 -17z"/>
<path d="M5026 778 c-27 -185 -56 -371 -61 -400 l-4 -28 143 0 c141 0 144 0
150 23 3 12 6 25 6 29 0 4 -49 9 -108 10 l-108 3 15 92 14 92 91 3 91 3 3 28
3 27 -90 0 c-50 0 -91 1 -91 3 0 1 7 40 15 87 8 47 15 85 15 85 0 0 45 -1 100
-3 l100 -3 10 26 c5 14 10 28 10 31 0 2 -65 4 -144 4 l-144 0 -16 -112z"/>
<path d="M5575 878 c-2 -7 -11 -62 -20 -123 -9 -60 -25 -168 -35 -240 -11 -72
-20 -138 -20 -148 0 -16 12 -17 143 -15 l142 3 3 28 3 27 -107 0 -106 0 5 30
c4 16 9 59 13 95 l7 65 89 0 c86 0 89 1 98 26 6 14 10 27 10 30 0 2 -41 4 -91
4 l-92 0 7 53 c4 28 9 66 12 84 l6 32 107 3 106 3 3 28 3 27 -141 0 c-104 0
-142 -3 -145 -12z"/>
<path d="M5940 882 c0 -5 -12 -87 -26 -183 -14 -96 -31 -213 -38 -261 l-12
-88 36 0 36 0 29 195 c16 108 32 192 36 188 4 -5 34 -80 67 -168 84 -224 79
-215 118 -215 37 0 36 -4 54 115 51 333 60 395 60 409 0 12 -9 16 -35 16 -19
0 -35 -1 -35 -3 0 -18 -60 -380 -63 -384 -3 -2 -8 6 -12 19 -7 20 -47 128
-117 311 -22 55 -24 57 -60 57 -21 0 -38 -4 -38 -8z"/>
<path d="M7276 873 c-3 -10 -12 -70 -21 -133 -9 -63 -22 -153 -30 -200 -7 -47
-16 -109 -19 -137 l-7 -53 35 0 c40 0 35 -15 67 208 13 89 26 162 30 162 3 0
11 -33 18 -72 7 -40 21 -124 33 -186 20 -109 21 -113 45 -110 21 3 36 28 110
186 47 100 88 180 90 178 2 -2 -8 -81 -22 -177 -14 -95 -25 -176 -25 -181 0
-4 15 -8 34 -8 29 0 35 4 40 27 5 24 76 500 76 510 0 2 -21 3 -46 1 -53 -3
-48 3 -105 -128 -23 -52 -59 -131 -79 -176 -21 -45 -41 -91 -45 -103 -4 -13
-10 -20 -13 -16 -4 4 -20 100 -37 213 l-30 207 -47 3 c-38 2 -47 0 -52 -15z"/>
<path d="M7837 883 c-3 -5 -12 -55 -21 -113 -9 -58 -25 -162 -36 -233 -11 -70
-20 -141 -20 -157 l0 -30 139 0 c117 0 140 2 145 16 16 41 10 44 -99 44 -121
0 -112 -10 -93 112 l12 78 92 0 92 0 4 30 5 30 -94 0 c-85 0 -94 2 -90 18 3 9
8 35 11 57 4 22 9 52 12 68 l6 27 103 0 c85 0 104 3 109 16 16 43 12 44 -133
44 -77 0 -142 -3 -144 -7z"/>
<path d="M8200 888 c-1 -2 -3 -21 -6 -43 -5 -39 -31 -209 -60 -391 -7 -50 -14
-94 -14 -98 0 -3 15 -6 34 -6 42 0 40 -5 65 170 30 204 33 222 41 213 4 -4 38
-92 76 -195 l69 -188 37 0 c42 0 40 -5 57 120 6 41 22 151 36 244 14 93 25
171 25 173 0 1 -16 3 -35 3 -41 0 -35 17 -71 -215 -14 -93 -27 -171 -28 -172
-4 -4 -125 310 -141 365 -5 18 -13 22 -46 22 -21 0 -39 -1 -39 -2z"/>
<path d="M8666 879 c-2 -8 -14 -79 -26 -159 -11 -80 -27 -186 -35 -236 -24
-145 -29 -134 71 -134 115 0 159 14 215 70 63 63 83 124 83 262 1 92 -2 110
-20 134 -43 59 -67 68 -179 72 -82 3 -106 1 -109 -9z m216 -80 c26 -31 32 -83
19 -177 -14 -96 -36 -148 -81 -186 -26 -22 -41 -26 -91 -26 -32 0 -59 2 -59 5
0 9 41 294 51 352 11 62 11 62 47 65 51 4 94 -8 114 -33z"/>
<path d="M9170 773 c-29 -65 -65 -145 -80 -178 -71 -155 -83 -182 -96 -212
l-14 -33 38 0 c38 0 39 1 69 70 l31 70 80 0 81 0 6 -57 c9 -81 10 -83 50 -83
21 0 35 5 35 13 0 6 -9 73 -20 147 -11 74 -27 182 -35 240 -20 140 -20 140
-59 140 -33 0 -34 -2 -86 -117z m85 -108 c3 -38 9 -80 12 -92 5 -22 2 -23 -56
-23 -34 0 -61 3 -61 8 0 21 85 200 91 189 4 -6 10 -43 14 -82z"/>
</g>
</svg>
